<svg xmlns="http://www.w3.org/2000/svg" width="155" height="155" viewBox="0 0 155 155" version="1.1"><path d="M 9 11 C 7.021 12.979, 6.046 21, 7.784 21 C 8.762 21, 19 10.702, 19 9.719 C 19 8.030, 10.937 9.063, 9 11 M 24 9.784 C 24 10.930, 34.384 21, 35.566 21 C 36.695 21, 47 10.833, 47 9.719 C 47 9.323, 41.825 9, 35.500 9 C 29.175 9, 24 9.353, 24 9.784 M 52 9.784 C 52 10.930, 62.384 21, 63.566 21 C 64.695 21, 75 10.833, 75 9.719 C 75 9.323, 69.825 9, 63.500 9 C 57.175 9, 52 9.353, 52 9.784 M 80 9.784 C 80 10.930, 90.384 21, 91.566 21 C 92.695 21, 103 10.833, 103 9.719 C 103 9.323, 97.825 9, 91.500 9 C 85.175 9, 80 9.353, 80 9.784 M 108 9.784 C 108 10.930, 118.384 21, 119.566 21 C 120.695 21, 131 10.833, 131 9.719 C 131 9.323, 125.825 9, 119.500 9 C 113.175 9, 108 9.353, 108 9.784 M 136 9.784 C 136 10.762, 146.298 21, 147.281 21 C 148.970 21, 147.937 12.937, 146 11 C 144.021 9.021, 136 8.046, 136 9.784 M 7 65.500 C 7 71.825, 7.353 77, 7.784 77 C 8.930 77, 19 66.616, 19 65.434 C 19 64.305, 8.833 54, 7.719 54 C 7.323 54, 7 59.175, 7 65.500 M 29.216 59.281 C 26.347 62.186, 24 65.014, 24 65.566 C 24 66.865, 34.251 77, 35.566 77 C 36.865 77, 47 66.749, 47 65.434 C 47 64.135, 36.749 54, 35.434 54 C 34.883 54, 32.085 56.377, 29.216 59.281 M 57.216 59.281 C 54.347 62.186, 52 65.014, 52 65.566 C 52 66.865, 62.251 77, 63.566 77 C 64.865 77, 75 66.749, 75 65.434 C 75 64.135, 64.749 54, 63.434 54 C 62.883 54, 60.085 56.377, 57.216 59.281 M 85.216 59.281 C 82.347 62.186, 80 65.014, 80 65.566 C 80 66.865, 90.251 77, 91.566 77 C 92.865 77, 103 66.749, 103 65.434 C 103 64.135, 92.749 54, 91.434 54 C 90.883 54, 88.085 56.377, 85.216 59.281 M 113.216 59.281 C 110.347 62.186, 108 65.014, 108 65.566 C 108 66.865, 118.251 77, 119.566 77 C 120.865 77, 131 66.749, 131 65.434 C 131 64.135, 120.749 54, 119.434 54 C 118.883 54, 116.085 56.377, 113.216 59.281 M 141.216 59.281 C 138.347 62.186, 136 65.014, 136 65.566 C 136 66.695, 146.167 77, 147.281 77 C 147.677 77, 148 71.825, 148 65.500 C 148 59.175, 147.647 54, 147.216 54 C 146.785 54, 144.085 56.377, 141.216 59.281 M 7 121.500 C 7 127.825, 7.353 133, 7.784 133 C 8.930 133, 19 122.616, 19 121.434 C 19 120.305, 8.833 110, 7.719 110 C 7.323 110, 7 115.175, 7 121.500 M 29.216 115.281 C 26.347 118.186, 24 121.014, 24 121.566 C 24 122.865, 34.251 133, 35.566 133 C 36.865 133, 47 122.749, 47 121.434 C 47 120.135, 36.749 110, 35.434 110 C 34.883 110, 32.085 112.377, 29.216 115.281 M 57.216 115.281 C 54.347 118.186, 52 121.014, 52 121.566 C 52 122.865, 62.251 133, 63.566 133 C 64.865 133, 75 122.749, 75 121.434 C 75 120.135, 64.749 110, 63.434 110 C 62.883 110, 60.085 112.377, 57.216 115.281 M 85.216 115.281 C 82.347 118.186, 80 121.014, 80 121.566 C 80 122.865, 90.251 133, 91.566 133 C 92.865 133, 103 122.749, 103 121.434 C 103 120.135, 92.749 110, 91.434 110 C 90.883 110, 88.085 112.377, 85.216 115.281 M 113.216 115.281 C 110.347 118.186, 108 121.014, 108 121.566 C 108 122.865, 118.251 133, 119.566 133 C 120.865 133, 131 122.749, 131 121.434 C 131 120.135, 120.749 110, 119.434 110 C 118.883 110, 116.085 112.377, 113.216 115.281 M 141.216 115.281 C 138.347 118.186, 136 121.014, 136 121.566 C 136 122.695, 146.167 133, 147.281 133 C 147.677 133, 148 127.825, 148 121.500 C 148 115.175, 147.647 110, 147.216 110 C 146.785 110, 144.085 112.377, 141.216 115.281" stroke="none" fill="#b13733" fill-rule="evenodd"/><path d="M 0 77.506 L 0 155.012 77.750 154.756 L 155.500 154.500 155.756 77.250 L 156.012 0 78.006 0 L 0 0 0 77.506 M 0.476 78 C 0.476 120.625, 0.599 138.063, 0.750 116.750 C 0.900 95.438, 0.900 60.563, 0.750 39.250 C 0.599 17.938, 0.476 35.375, 0.476 78 M 9 11 C 7.021 12.979, 6.046 21, 7.784 21 C 8.762 21, 19 10.702, 19 9.719 C 19 8.030, 10.937 9.063, 9 11 M 24 9.784 C 24 10.930, 34.384 21, 35.566 21 C 36.695 21, 47 10.833, 47 9.719 C 47 9.323, 41.825 9, 35.500 9 C 29.175 9, 24 9.353, 24 9.784 M 52 9.784 C 52 10.930, 62.384 21, 63.566 21 C 64.695 21, 75 10.833, 75 9.719 C 75 9.323, 69.825 9, 63.500 9 C 57.175 9, 52 9.353, 52 9.784 M 80 9.784 C 80 10.930, 90.384 21, 91.566 21 C 92.695 21, 103 10.833, 103 9.719 C 103 9.323, 97.825 9, 91.500 9 C 85.175 9, 80 9.353, 80 9.784 M 108 9.784 C 108 10.930, 118.384 21, 119.566 21 C 120.695 21, 131 10.833, 131 9.719 C 131 9.323, 125.825 9, 119.500 9 C 113.175 9, 108 9.353, 108 9.784 M 136 9.784 C 136 10.762, 146.298 21, 147.281 21 C 148.970 21, 147.937 12.937, 146 11 C 144.021 9.021, 136 8.046, 136 9.784 M 15.216 17.281 C 12.347 20.186, 10 23.014, 10 23.566 C 10 24.865, 20.251 35, 21.566 35 C 22.865 35, 33 24.749, 33 23.434 C 33 22.135, 22.749 12, 21.434 12 C 20.883 12, 18.085 14.377, 15.216 17.281 M 43.216 17.281 C 40.347 20.186, 38 23.014, 38 23.566 C 38 24.865, 48.251 35, 49.566 35 C 50.865 35, 61 24.749, 61 23.434 C 61 22.135, 50.749 12, 49.434 12 C 48.883 12, 46.085 14.377, 43.216 17.281 M 71.216 17.281 C 68.347 20.186, 66 23.014, 66 23.566 C 66 24.865, 76.251 35, 77.566 35 C 78.865 35, 89 24.749, 89 23.434 C 89 22.135, 78.749 12, 77.434 12 C 76.883 12, 74.085 14.377, 71.216 17.281 M 99.216 17.281 C 96.347 20.186, 94 23.014, 94 23.566 C 94 24.865, 104.251 35, 105.566 35 C 106.865 35, 117 24.749, 117 23.434 C 117 22.135, 106.749 12, 105.434 12 C 104.883 12, 102.085 14.377, 99.216 17.281 M 127.216 17.281 C 124.347 20.186, 122 23.014, 122 23.566 C 122 24.865, 132.251 35, 133.566 35 C 134.865 35, 145 24.749, 145 23.434 C 145 22.135, 134.749 12, 133.434 12 C 132.883 12, 130.085 14.377, 127.216 17.281 M 7 37.500 C 7 43.825, 7.353 49, 7.784 49 C 8.930 49, 19 38.616, 19 37.434 C 19 36.305, 8.833 26, 7.719 26 C 7.323 26, 7 31.175, 7 37.500 M 29.216 31.281 C 26.347 34.186, 24 37.014, 24 37.566 C 24 38.865, 34.251 49, 35.566 49 C 36.865 49, 47 38.749, 47 37.434 C 47 36.135, 36.749 26, 35.434 26 C 34.883 26, 32.085 28.377, 29.216 31.281 M 57.216 31.281 C 54.347 34.186, 52 37.014, 52 37.566 C 52 38.865, 62.251 49, 63.566 49 C 64.865 49, 75 38.749, 75 37.434 C 75 36.135, 64.749 26, 63.434 26 C 62.883 26, 60.085 28.377, 57.216 31.281 M 85.216 31.281 C 82.347 34.186, 80 37.014, 80 37.566 C 80 38.865, 90.251 49, 91.566 49 C 92.865 49, 103 38.749, 103 37.434 C 103 36.135, 92.749 26, 91.434 26 C 90.883 26, 88.085 28.377, 85.216 31.281 M 113.216 31.281 C 110.347 34.186, 108 37.014, 108 37.566 C 108 38.865, 118.251 49, 119.566 49 C 120.865 49, 131 38.749, 131 37.434 C 131 36.135, 120.749 26, 119.434 26 C 118.883 26, 116.085 28.377, 113.216 31.281 M 141.216 31.281 C 138.347 34.186, 136 37.014, 136 37.566 C 136 38.695, 146.167 49, 147.281 49 C 147.677 49, 148 43.825, 148 37.500 C 148 31.175, 147.647 26, 147.216 26 C 146.785 26, 144.085 28.377, 141.216 31.281 M 15.216 45.281 C 12.347 48.186, 10 51.014, 10 51.566 C 10 52.865, 20.251 63, 21.566 63 C 22.865 63, 33 52.749, 33 51.434 C 33 50.135, 22.749 40, 21.434 40 C 20.883 40, 18.085 42.377, 15.216 45.281 M 43.216 45.281 C 40.347 48.186, 38 51.014, 38 51.566 C 38 52.865, 48.251 63, 49.566 63 C 50.865 63, 61 52.749, 61 51.434 C 61 50.135, 50.749 40, 49.434 40 C 48.883 40, 46.085 42.377, 43.216 45.281 M 71.216 45.281 C 68.347 48.186, 66 51.014, 66 51.566 C 66 52.865, 76.251 63, 77.566 63 C 78.865 63, 89 52.749, 89 51.434 C 89 50.135, 78.749 40, 77.434 40 C 76.883 40, 74.085 42.377, 71.216 45.281 M 99.216 45.281 C 96.347 48.186, 94 51.014, 94 51.566 C 94 52.865, 104.251 63, 105.566 63 C 106.865 63, 117 52.749, 117 51.434 C 117 50.135, 106.749 40, 105.434 40 C 104.883 40, 102.085 42.377, 99.216 45.281 M 127.216 45.281 C 124.347 48.186, 122 51.014, 122 51.566 C 122 52.865, 132.251 63, 133.566 63 C 134.865 63, 145 52.749, 145 51.434 C 145 50.135, 134.749 40, 133.434 40 C 132.883 40, 130.085 42.377, 127.216 45.281 M 7 65.500 C 7 71.825, 7.353 77, 7.784 77 C 8.930 77, 19 66.616, 19 65.434 C 19 64.305, 8.833 54, 7.719 54 C 7.323 54, 7 59.175, 7 65.500 M 29.216 59.281 C 26.347 62.186, 24 65.014, 24 65.566 C 24 66.865, 34.251 77, 35.566 77 C 36.865 77, 47 66.749, 47 65.434 C 47 64.135, 36.749 54, 35.434 54 C 34.883 54, 32.085 56.377, 29.216 59.281 M 57.216 59.281 C 54.347 62.186, 52 65.014, 52 65.566 C 52 66.865, 62.251 77, 63.566 77 C 64.865 77, 75 66.749, 75 65.434 C 75 64.135, 64.749 54, 63.434 54 C 62.883 54, 60.085 56.377, 57.216 59.281 M 85.216 59.281 C 82.347 62.186, 80 65.014, 80 65.566 C 80 66.865, 90.251 77, 91.566 77 C 92.865 77, 103 66.749, 103 65.434 C 103 64.135, 92.749 54, 91.434 54 C 90.883 54, 88.085 56.377, 85.216 59.281 M 113.216 59.281 C 110.347 62.186, 108 65.014, 108 65.566 C 108 66.865, 118.251 77, 119.566 77 C 120.865 77, 131 66.749, 131 65.434 C 131 64.135, 120.749 54, 119.434 54 C 118.883 54, 116.085 56.377, 113.216 59.281 M 141.216 59.281 C 138.347 62.186, 136 65.014, 136 65.566 C 136 66.695, 146.167 77, 147.281 77 C 147.677 77, 148 71.825, 148 65.500 C 148 59.175, 147.647 54, 147.216 54 C 146.785 54, 144.085 56.377, 141.216 59.281 M 15.216 73.281 C 12.347 76.186, 10 79.014, 10 79.566 C 10 80.865, 20.251 91, 21.566 91 C 22.865 91, 33 80.749, 33 79.434 C 33 78.135, 22.749 68, 21.434 68 C 20.883 68, 18.085 70.377, 15.216 73.281 M 43.216 73.281 C 40.347 76.186, 38 79.014, 38 79.566 C 38 80.865, 48.251 91, 49.566 91 C 50.865 91, 61 80.749, 61 79.434 C 61 78.135, 50.749 68, 49.434 68 C 48.883 68, 46.085 70.377, 43.216 73.281 M 71.216 73.281 C 68.347 76.186, 66 79.014, 66 79.566 C 66 80.865, 76.251 91, 77.566 91 C 78.865 91, 89 80.749, 89 79.434 C 89 78.135, 78.749 68, 77.434 68 C 76.883 68, 74.085 70.377, 71.216 73.281 M 99.216 73.281 C 96.347 76.186, 94 79.014, 94 79.566 C 94 80.865, 104.251 91, 105.566 91 C 106.865 91, 117 80.749, 117 79.434 C 117 78.135, 106.749 68, 105.434 68 C 104.883 68, 102.085 70.377, 99.216 73.281 M 127.216 73.281 C 124.347 76.186, 122 79.014, 122 79.566 C 122 80.865, 132.251 91, 133.566 91 C 134.865 91, 145 80.749, 145 79.434 C 145 78.135, 134.749 68, 133.434 68 C 132.883 68, 130.085 70.377, 127.216 73.281 M 7 93.500 C 7 99.825, 7.353 105, 7.784 105 C 8.930 105, 19 94.616, 19 93.434 C 19 92.305, 8.833 82, 7.719 82 C 7.323 82, 7 87.175, 7 93.500 M 29.216 87.281 C 26.347 90.186, 24 93.014, 24 93.566 C 24 94.865, 34.251 105, 35.566 105 C 36.865 105, 47 94.749, 47 93.434 C 47 92.135, 36.749 82, 35.434 82 C 34.883 82, 32.085 84.377, 29.216 87.281 M 57.216 87.281 C 54.347 90.186, 52 93.014, 52 93.566 C 52 94.865, 62.251 105, 63.566 105 C 64.865 105, 75 94.749, 75 93.434 C 75 92.135, 64.749 82, 63.434 82 C 62.883 82, 60.085 84.377, 57.216 87.281 M 85.216 87.281 C 82.347 90.186, 80 93.014, 80 93.566 C 80 94.865, 90.251 105, 91.566 105 C 92.865 105, 103 94.749, 103 93.434 C 103 92.135, 92.749 82, 91.434 82 C 90.883 82, 88.085 84.377, 85.216 87.281 M 113.216 87.281 C 110.347 90.186, 108 93.014, 108 93.566 C 108 94.865, 118.251 105, 119.566 105 C 120.865 105, 131 94.749, 131 93.434 C 131 92.135, 120.749 82, 119.434 82 C 118.883 82, 116.085 84.377, 113.216 87.281 M 141.216 87.281 C 138.347 90.186, 136 93.014, 136 93.566 C 136 94.695, 146.167 105, 147.281 105 C 147.677 105, 148 99.825, 148 93.500 C 148 87.175, 147.647 82, 147.216 82 C 146.785 82, 144.085 84.377, 141.216 87.281 M 15.216 101.281 C 12.347 104.186, 10 107.014, 10 107.566 C 10 108.865, 20.251 119, 21.566 119 C 22.865 119, 33 108.749, 33 107.434 C 33 106.135, 22.749 96, 21.434 96 C 20.883 96, 18.085 98.377, 15.216 101.281 M 43.216 101.281 C 40.347 104.186, 38 107.014, 38 107.566 C 38 108.865, 48.251 119, 49.566 119 C 50.865 119, 61 108.749, 61 107.434 C 61 106.135, 50.749 96, 49.434 96 C 48.883 96, 46.085 98.377, 43.216 101.281 M 71.216 101.281 C 68.347 104.186, 66 107.014, 66 107.566 C 66 108.865, 76.251 119, 77.566 119 C 78.865 119, 89 108.749, 89 107.434 C 89 106.135, 78.749 96, 77.434 96 C 76.883 96, 74.085 98.377, 71.216 101.281 M 99.216 101.281 C 96.347 104.186, 94 107.014, 94 107.566 C 94 108.865, 104.251 119, 105.566 119 C 106.865 119, 117 108.749, 117 107.434 C 117 106.135, 106.749 96, 105.434 96 C 104.883 96, 102.085 98.377, 99.216 101.281 M 127.216 101.281 C 124.347 104.186, 122 107.014, 122 107.566 C 122 108.865, 132.251 119, 133.566 119 C 134.865 119, 145 108.749, 145 107.434 C 145 106.135, 134.749 96, 133.434 96 C 132.883 96, 130.085 98.377, 127.216 101.281 M 7 121.500 C 7 127.825, 7.353 133, 7.784 133 C 8.930 133, 19 122.616, 19 121.434 C 19 120.305, 8.833 110, 7.719 110 C 7.323 110, 7 115.175, 7 121.500 M 29.216 115.281 C 26.347 118.186, 24 121.014, 24 121.566 C 24 122.865, 34.251 133, 35.566 133 C 36.865 133, 47 122.749, 47 121.434 C 47 120.135, 36.749 110, 35.434 110 C 34.883 110, 32.085 112.377, 29.216 115.281 M 57.216 115.281 C 54.347 118.186, 52 121.014, 52 121.566 C 52 122.865, 62.251 133, 63.566 133 C 64.865 133, 75 122.749, 75 121.434 C 75 120.135, 64.749 110, 63.434 110 C 62.883 110, 60.085 112.377, 57.216 115.281 M 85.216 115.281 C 82.347 118.186, 80 121.014, 80 121.566 C 80 122.865, 90.251 133, 91.566 133 C 92.865 133, 103 122.749, 103 121.434 C 103 120.135, 92.749 110, 91.434 110 C 90.883 110, 88.085 112.377, 85.216 115.281 M 113.216 115.281 C 110.347 118.186, 108 121.014, 108 121.566 C 108 122.865, 118.251 133, 119.566 133 C 120.865 133, 131 122.749, 131 121.434 C 131 120.135, 120.749 110, 119.434 110 C 118.883 110, 116.085 112.377, 113.216 115.281 M 141.216 115.281 C 138.347 118.186, 136 121.014, 136 121.566 C 136 122.695, 146.167 133, 147.281 133 C 147.677 133, 148 127.825, 148 121.500 C 148 115.175, 147.647 110, 147.216 110 C 146.785 110, 144.085 112.377, 141.216 115.281 M 15.216 129.281 C 12.347 132.186, 10 135.014, 10 135.566 C 10 136.865, 20.251 147, 21.566 147 C 22.865 147, 33 136.749, 33 135.434 C 33 134.135, 22.749 124, 21.434 124 C 20.883 124, 18.085 126.377, 15.216 129.281 M 43.216 129.281 C 40.347 132.186, 38 135.014, 38 135.566 C 38 136.865, 48.251 147, 49.566 147 C 50.865 147, 61 136.749, 61 135.434 C 61 134.135, 50.749 124, 49.434 124 C 48.883 124, 46.085 126.377, 43.216 129.281 M 71.216 129.281 C 68.347 132.186, 66 135.014, 66 135.566 C 66 136.865, 76.251 147, 77.566 147 C 78.865 147, 89 136.749, 89 135.434 C 89 134.135, 78.749 124, 77.434 124 C 76.883 124, 74.085 126.377, 71.216 129.281 M 99.216 129.281 C 96.347 132.186, 94 135.014, 94 135.566 C 94 136.865, 104.251 147, 105.566 147 C 106.865 147, 117 136.749, 117 135.434 C 117 134.135, 106.749 124, 105.434 124 C 104.883 124, 102.085 126.377, 99.216 129.281 M 127.216 129.281 C 124.347 132.186, 122 135.014, 122 135.566 C 122 136.865, 132.251 147, 133.566 147 C 134.865 147, 145 136.749, 145 135.434 C 145 134.135, 134.749 124, 133.434 124 C 132.883 124, 130.085 126.377, 127.216 129.281 M 7 142 C 7 147.333, 9.667 150, 15 150 C 17.200 150, 19 149.647, 19 149.216 C 19 148.238, 8.702 138, 7.719 138 C 7.323 138, 7 139.800, 7 142 M 29.216 143.281 C 26.347 146.186, 24 148.886, 24 149.281 C 24 149.677, 29.175 150, 35.500 150 C 41.825 150, 47 149.647, 47 149.216 C 47 148.070, 36.616 138, 35.434 138 C 34.883 138, 32.085 140.377, 29.216 143.281 M 57.216 143.281 C 54.347 146.186, 52 148.886, 52 149.281 C 52 149.677, 57.175 150, 63.500 150 C 69.825 150, 75 149.647, 75 149.216 C 75 148.070, 64.616 138, 63.434 138 C 62.883 138, 60.085 140.377, 57.216 143.281 M 85.216 143.281 C 82.347 146.186, 80 148.886, 80 149.281 C 80 149.677, 85.175 150, 91.500 150 C 97.825 150, 103 149.647, 103 149.216 C 103 148.070, 92.616 138, 91.434 138 C 90.883 138, 88.085 140.377, 85.216 143.281 M 113.216 143.281 C 110.347 146.186, 108 148.886, 108 149.281 C 108 149.677, 113.175 150, 119.500 150 C 125.825 150, 131 149.647, 131 149.216 C 131 148.070, 120.616 138, 119.434 138 C 118.883 138, 116.085 140.377, 113.216 143.281 M 141.216 143.281 C 138.347 146.186, 136 148.886, 136 149.281 C 136 150.970, 144.063 149.937, 146 148 C 147.979 146.021, 148.954 138, 147.216 138 C 146.785 138, 144.085 140.377, 141.216 143.281" stroke="none" fill="#fffefe" fill-rule="evenodd"/><path d="M 7 37.500 C 7 43.825, 7.353 49, 7.784 49 C 8.930 49, 19 38.616, 19 37.434 C 19 36.305, 8.833 26, 7.719 26 C 7.323 26, 7 31.175, 7 37.500 M 29.216 31.281 C 26.347 34.186, 24 37.014, 24 37.566 C 24 38.865, 34.251 49, 35.566 49 C 36.865 49, 47 38.749, 47 37.434 C 47 36.135, 36.749 26, 35.434 26 C 34.883 26, 32.085 28.377, 29.216 31.281 M 57.216 31.281 C 54.347 34.186, 52 37.014, 52 37.566 C 52 38.865, 62.251 49, 63.566 49 C 64.865 49, 75 38.749, 75 37.434 C 75 36.135, 64.749 26, 63.434 26 C 62.883 26, 60.085 28.377, 57.216 31.281 M 85.216 31.281 C 82.347 34.186, 80 37.014, 80 37.566 C 80 38.865, 90.251 49, 91.566 49 C 92.865 49, 103 38.749, 103 37.434 C 103 36.135, 92.749 26, 91.434 26 C 90.883 26, 88.085 28.377, 85.216 31.281 M 113.216 31.281 C 110.347 34.186, 108 37.014, 108 37.566 C 108 38.865, 118.251 49, 119.566 49 C 120.865 49, 131 38.749, 131 37.434 C 131 36.135, 120.749 26, 119.434 26 C 118.883 26, 116.085 28.377, 113.216 31.281 M 141.216 31.281 C 138.347 34.186, 136 37.014, 136 37.566 C 136 38.695, 146.167 49, 147.281 49 C 147.677 49, 148 43.825, 148 37.500 C 148 31.175, 147.647 26, 147.216 26 C 146.785 26, 144.085 28.377, 141.216 31.281 M 7 93.500 C 7 99.825, 7.353 105, 7.784 105 C 8.930 105, 19 94.616, 19 93.434 C 19 92.305, 8.833 82, 7.719 82 C 7.323 82, 7 87.175, 7 93.500 M 29.216 87.281 C 26.347 90.186, 24 93.014, 24 93.566 C 24 94.865, 34.251 105, 35.566 105 C 36.865 105, 47 94.749, 47 93.434 C 47 92.135, 36.749 82, 35.434 82 C 34.883 82, 32.085 84.377, 29.216 87.281 M 57.216 87.281 C 54.347 90.186, 52 93.014, 52 93.566 C 52 94.865, 62.251 105, 63.566 105 C 64.865 105, 75 94.749, 75 93.434 C 75 92.135, 64.749 82, 63.434 82 C 62.883 82, 60.085 84.377, 57.216 87.281 M 85.216 87.281 C 82.347 90.186, 80 93.014, 80 93.566 C 80 94.865, 90.251 105, 91.566 105 C 92.865 105, 103 94.749, 103 93.434 C 103 92.135, 92.749 82, 91.434 82 C 90.883 82, 88.085 84.377, 85.216 87.281 M 113.216 87.281 C 110.347 90.186, 108 93.014, 108 93.566 C 108 94.865, 118.251 105, 119.566 105 C 120.865 105, 131 94.749, 131 93.434 C 131 92.135, 120.749 82, 119.434 82 C 118.883 82, 116.085 84.377, 113.216 87.281 M 141.216 87.281 C 138.347 90.186, 136 93.014, 136 93.566 C 136 94.695, 146.167 105, 147.281 105 C 147.677 105, 148 99.825, 148 93.500 C 148 87.175, 147.647 82, 147.216 82 C 146.785 82, 144.085 84.377, 141.216 87.281 M 7 142 C 7 147.333, 9.667 150, 15 150 C 17.200 150, 19 149.647, 19 149.216 C 19 148.238, 8.702 138, 7.719 138 C 7.323 138, 7 139.800, 7 142 M 29.216 143.281 C 26.347 146.186, 24 148.886, 24 149.281 C 24 149.677, 29.175 150, 35.500 150 C 41.825 150, 47 149.647, 47 149.216 C 47 148.070, 36.616 138, 35.434 138 C 34.883 138, 32.085 140.377, 29.216 143.281 M 57.216 143.281 C 54.347 146.186, 52 148.886, 52 149.281 C 52 149.677, 57.175 150, 63.500 150 C 69.825 150, 75 149.647, 75 149.216 C 75 148.070, 64.616 138, 63.434 138 C 62.883 138, 60.085 140.377, 57.216 143.281 M 85.216 143.281 C 82.347 146.186, 80 148.886, 80 149.281 C 80 149.677, 85.175 150, 91.500 150 C 97.825 150, 103 149.647, 103 149.216 C 103 148.070, 92.616 138, 91.434 138 C 90.883 138, 88.085 140.377, 85.216 143.281 M 113.216 143.281 C 110.347 146.186, 108 148.886, 108 149.281 C 108 149.677, 113.175 150, 119.500 150 C 125.825 150, 131 149.647, 131 149.216 C 131 148.070, 120.616 138, 119.434 138 C 118.883 138, 116.085 140.377, 113.216 143.281 M 141.216 143.281 C 138.347 146.186, 136 148.886, 136 149.281 C 136 150.970, 144.063 149.937, 146 148 C 147.979 146.021, 148.954 138, 147.216 138 C 146.785 138, 144.085 140.377, 141.216 143.281" stroke="none" fill="#913333" fill-rule="evenodd"/><path d="M 15.216 17.281 C 12.347 20.186, 10 23.014, 10 23.566 C 10 24.865, 20.251 35, 21.566 35 C 22.865 35, 33 24.749, 33 23.434 C 33 22.135, 22.749 12, 21.434 12 C 20.883 12, 18.085 14.377, 15.216 17.281 M 43.216 17.281 C 40.347 20.186, 38 23.014, 38 23.566 C 38 24.865, 48.251 35, 49.566 35 C 50.865 35, 61 24.749, 61 23.434 C 61 22.135, 50.749 12, 49.434 12 C 48.883 12, 46.085 14.377, 43.216 17.281 M 71.216 17.281 C 68.347 20.186, 66 23.014, 66 23.566 C 66 24.865, 76.251 35, 77.566 35 C 78.865 35, 89 24.749, 89 23.434 C 89 22.135, 78.749 12, 77.434 12 C 76.883 12, 74.085 14.377, 71.216 17.281 M 99.216 17.281 C 96.347 20.186, 94 23.014, 94 23.566 C 94 24.865, 104.251 35, 105.566 35 C 106.865 35, 117 24.749, 117 23.434 C 117 22.135, 106.749 12, 105.434 12 C 104.883 12, 102.085 14.377, 99.216 17.281 M 127.216 17.281 C 124.347 20.186, 122 23.014, 122 23.566 C 122 24.865, 132.251 35, 133.566 35 C 134.865 35, 145 24.749, 145 23.434 C 145 22.135, 134.749 12, 133.434 12 C 132.883 12, 130.085 14.377, 127.216 17.281 M 15.216 45.281 C 12.347 48.186, 10 51.014, 10 51.566 C 10 52.865, 20.251 63, 21.566 63 C 22.865 63, 33 52.749, 33 51.434 C 33 50.135, 22.749 40, 21.434 40 C 20.883 40, 18.085 42.377, 15.216 45.281 M 43.216 45.281 C 40.347 48.186, 38 51.014, 38 51.566 C 38 52.865, 48.251 63, 49.566 63 C 50.865 63, 61 52.749, 61 51.434 C 61 50.135, 50.749 40, 49.434 40 C 48.883 40, 46.085 42.377, 43.216 45.281 M 71.216 45.281 C 68.347 48.186, 66 51.014, 66 51.566 C 66 52.865, 76.251 63, 77.566 63 C 78.865 63, 89 52.749, 89 51.434 C 89 50.135, 78.749 40, 77.434 40 C 76.883 40, 74.085 42.377, 71.216 45.281 M 99.216 45.281 C 96.347 48.186, 94 51.014, 94 51.566 C 94 52.865, 104.251 63, 105.566 63 C 106.865 63, 117 52.749, 117 51.434 C 117 50.135, 106.749 40, 105.434 40 C 104.883 40, 102.085 42.377, 99.216 45.281 M 127.216 45.281 C 124.347 48.186, 122 51.014, 122 51.566 C 122 52.865, 132.251 63, 133.566 63 C 134.865 63, 145 52.749, 145 51.434 C 145 50.135, 134.749 40, 133.434 40 C 132.883 40, 130.085 42.377, 127.216 45.281 M 15.216 73.281 C 12.347 76.186, 10 79.014, 10 79.566 C 10 80.865, 20.251 91, 21.566 91 C 22.865 91, 33 80.749, 33 79.434 C 33 78.135, 22.749 68, 21.434 68 C 20.883 68, 18.085 70.377, 15.216 73.281 M 43.216 73.281 C 40.347 76.186, 38 79.014, 38 79.566 C 38 80.865, 48.251 91, 49.566 91 C 50.865 91, 61 80.749, 61 79.434 C 61 78.135, 50.749 68, 49.434 68 C 48.883 68, 46.085 70.377, 43.216 73.281 M 71.216 73.281 C 68.347 76.186, 66 79.014, 66 79.566 C 66 80.865, 76.251 91, 77.566 91 C 78.865 91, 89 80.749, 89 79.434 C 89 78.135, 78.749 68, 77.434 68 C 76.883 68, 74.085 70.377, 71.216 73.281 M 99.216 73.281 C 96.347 76.186, 94 79.014, 94 79.566 C 94 80.865, 104.251 91, 105.566 91 C 106.865 91, 117 80.749, 117 79.434 C 117 78.135, 106.749 68, 105.434 68 C 104.883 68, 102.085 70.377, 99.216 73.281 M 127.216 73.281 C 124.347 76.186, 122 79.014, 122 79.566 C 122 80.865, 132.251 91, 133.566 91 C 134.865 91, 145 80.749, 145 79.434 C 145 78.135, 134.749 68, 133.434 68 C 132.883 68, 130.085 70.377, 127.216 73.281 M 15.216 101.281 C 12.347 104.186, 10 107.014, 10 107.566 C 10 108.865, 20.251 119, 21.566 119 C 22.865 119, 33 108.749, 33 107.434 C 33 106.135, 22.749 96, 21.434 96 C 20.883 96, 18.085 98.377, 15.216 101.281 M 43.216 101.281 C 40.347 104.186, 38 107.014, 38 107.566 C 38 108.865, 48.251 119, 49.566 119 C 50.865 119, 61 108.749, 61 107.434 C 61 106.135, 50.749 96, 49.434 96 C 48.883 96, 46.085 98.377, 43.216 101.281 M 71.216 101.281 C 68.347 104.186, 66 107.014, 66 107.566 C 66 108.865, 76.251 119, 77.566 119 C 78.865 119, 89 108.749, 89 107.434 C 89 106.135, 78.749 96, 77.434 96 C 76.883 96, 74.085 98.377, 71.216 101.281 M 99.216 101.281 C 96.347 104.186, 94 107.014, 94 107.566 C 94 108.865, 104.251 119, 105.566 119 C 106.865 119, 117 108.749, 117 107.434 C 117 106.135, 106.749 96, 105.434 96 C 104.883 96, 102.085 98.377, 99.216 101.281 M 127.216 101.281 C 124.347 104.186, 122 107.014, 122 107.566 C 122 108.865, 132.251 119, 133.566 119 C 134.865 119, 145 108.749, 145 107.434 C 145 106.135, 134.749 96, 133.434 96 C 132.883 96, 130.085 98.377, 127.216 101.281 M 15.216 129.281 C 12.347 132.186, 10 135.014, 10 135.566 C 10 136.865, 20.251 147, 21.566 147 C 22.865 147, 33 136.749, 33 135.434 C 33 134.135, 22.749 124, 21.434 124 C 20.883 124, 18.085 126.377, 15.216 129.281 M 43.216 129.281 C 40.347 132.186, 38 135.014, 38 135.566 C 38 136.865, 48.251 147, 49.566 147 C 50.865 147, 61 136.749, 61 135.434 C 61 134.135, 50.749 124, 49.434 124 C 48.883 124, 46.085 126.377, 43.216 129.281 M 71.216 129.281 C 68.347 132.186, 66 135.014, 66 135.566 C 66 136.865, 76.251 147, 77.566 147 C 78.865 147, 89 136.749, 89 135.434 C 89 134.135, 78.749 124, 77.434 124 C 76.883 124, 74.085 126.377, 71.216 129.281 M 99.216 129.281 C 96.347 132.186, 94 135.014, 94 135.566 C 94 136.865, 104.251 147, 105.566 147 C 106.865 147, 117 136.749, 117 135.434 C 117 134.135, 106.749 124, 105.434 124 C 104.883 124, 102.085 126.377, 99.216 129.281 M 127.216 129.281 C 124.347 132.186, 122 135.014, 122 135.566 C 122 136.865, 132.251 147, 133.566 147 C 134.865 147, 145 136.749, 145 135.434 C 145 134.135, 134.749 124, 133.434 124 C 132.883 124, 130.085 126.377, 127.216 129.281" stroke="none" fill="#9d3433" fill-rule="evenodd"/></svg>